<?xml version="1.0" encoding="UTF-8" standalone="no"?>
<svg
   xmlns:dc="http://purl.org/dc/elements/1.1/"
   xmlns:cc="http://creativecommons.org/ns#"
   xmlns:rdf="http://www.w3.org/1999/02/22-rdf-syntax-ns#"
   xmlns:svg="http://www.w3.org/2000/svg"
   xmlns="http://www.w3.org/2000/svg"
   width="512"
   height="512"
   viewBox="0 0 512.00001 512.00001"
   id="svg2"
   version="1.1">
  <defs
     id="defs4" />
  <metadata
     id="metadata7">
    <rdf:RDF>
      <cc:Work
         rdf:about="">
        <dc:format>image/svg+xml</dc:format>
        <dc:type
           rdf:resource="http://purl.org/dc/dcmitype/StillImage" />
        <dc:title></dc:title>
      </cc:Work>
    </rdf:RDF>
  </metadata>
  <g
     id="layer1"
     transform="translate(-1.5017395e-7,-544.30576)">
    <g
       transform="matrix(1.0141297,0,0,1.0124294,-96.047877,436.33227)"
       id="g4272">
      <rect
         ry="26.137697"
         y="106.64791"
         x="152.85713"
         height="505.71429"
         width="388.57144"
         id="rect4270"
         style="fill:#505050;fill-opacity:1;stroke:none;stroke-width:1;stroke-linecap:round;stroke-linejoin:round;stroke-miterlimit:4;stroke-dasharray:none;stroke-opacity:1" />
      <rect
         ry="15"
         y="140.93364"
         x="187.14285"
         height="85.714287"
         width="322.14285"
         id="rect4175"
         style="fill:#d0e5a0;fill-opacity:1;stroke:none;stroke-width:1;stroke-linecap:round;stroke-linejoin:round;stroke-miterlimit:4;stroke-dasharray:none;stroke-opacity:1" />
      <rect
         ry="0"
         y="258.07648"
         x="187.14285"
         height="66.428566"
         width="65.714287"
         id="rect4181"
         style="fill:#848486;fill-opacity:1;stroke:none;stroke-width:1;stroke-linecap:round;stroke-linejoin:round;stroke-miterlimit:4;stroke-dasharray:none;stroke-opacity:1" />
      <rect
         y="258.07648"
         x="272.5"
         height="66.428566"
         width="65.714279"
         id="rect4183"
         style="fill:#848486;fill-opacity:1;stroke:none;stroke-width:1;stroke-linecap:round;stroke-linejoin:round;stroke-miterlimit:4;stroke-dasharray:none;stroke-opacity:1" />
      <rect
         y="258.07648"
         x="357.85715"
         height="66.428566"
         width="65.714279"
         id="rect4185"
         style="fill:#848486;fill-opacity:1;stroke:none;stroke-width:1;stroke-linecap:round;stroke-linejoin:round;stroke-miterlimit:4;stroke-dasharray:none;stroke-opacity:1" />
      <rect
         y="258.07648"
         x="442.85715"
         height="66.428566"
         width="66.428566"
         id="rect4187"
         style="fill:#40a2bf;fill-opacity:1;stroke:none;stroke-width:1;stroke-linecap:round;stroke-linejoin:round;stroke-miterlimit:4;stroke-dasharray:none;stroke-opacity:1" />
      <rect
         ry="0"
         y="344.50507"
         x="187.14285"
         height="66.428566"
         width="65.714287"
         id="rect4181-9"
         style="fill:#848486;fill-opacity:1;stroke:none;stroke-width:1;stroke-linecap:round;stroke-linejoin:round;stroke-miterlimit:4;stroke-dasharray:none;stroke-opacity:1" />
      <rect
         y="344.50507"
         x="272.5"
         height="66.428566"
         width="65.714279"
         id="rect4183-3"
         style="fill:#848486;fill-opacity:1;stroke:none;stroke-width:1;stroke-linecap:round;stroke-linejoin:round;stroke-miterlimit:4;stroke-dasharray:none;stroke-opacity:1" />
      <rect
         y="344.50507"
         x="357.85715"
         height="66.428566"
         width="65.714279"
         id="rect4185-0"
         style="fill:#848486;fill-opacity:1;stroke:none;stroke-width:1;stroke-linecap:round;stroke-linejoin:round;stroke-miterlimit:4;stroke-dasharray:none;stroke-opacity:1" />
      <rect
         y="344.50507"
         x="442.85718"
         height="66.428566"
         width="66.428566"
         id="rect4187-2"
         style="fill:#40a2bf;fill-opacity:1;stroke:none;stroke-width:1;stroke-linecap:round;stroke-linejoin:round;stroke-miterlimit:4;stroke-dasharray:none;stroke-opacity:1" />
      <rect
         ry="0"
         y="430.93365"
         x="187.14285"
         height="66.428566"
         width="65.714287"
         id="rect4181-2"
         style="fill:#848486;fill-opacity:1;stroke:none;stroke-width:1;stroke-linecap:round;stroke-linejoin:round;stroke-miterlimit:4;stroke-dasharray:none;stroke-opacity:1" />
      <rect
         y="430.93365"
         x="272.5"
         height="66.428566"
         width="65.714279"
         id="rect4183-0"
         style="fill:#848486;fill-opacity:1;stroke:none;stroke-width:1;stroke-linecap:round;stroke-linejoin:round;stroke-miterlimit:4;stroke-dasharray:none;stroke-opacity:1" />
      <rect
         y="430.93365"
         x="357.85715"
         height="66.428566"
         width="65.714279"
         id="rect4185-3"
         style="fill:#848486;fill-opacity:1;stroke:none;stroke-width:1;stroke-linecap:round;stroke-linejoin:round;stroke-miterlimit:4;stroke-dasharray:none;stroke-opacity:1" />
      <rect
         y="430.93365"
         x="442.85715"
         height="66.428566"
         width="66.428566"
         id="rect4187-6"
         style="fill:#40a2bf;fill-opacity:1;stroke:none;stroke-width:1;stroke-linecap:round;stroke-linejoin:round;stroke-miterlimit:4;stroke-dasharray:none;stroke-opacity:1" />
      <rect
         ry="0"
         y="517.36224"
         x="187.14285"
         height="66.428566"
         width="65.714287"
         id="rect4181-8"
         style="fill:#848486;fill-opacity:1;stroke:none;stroke-width:1;stroke-linecap:round;stroke-linejoin:round;stroke-miterlimit:4;stroke-dasharray:none;stroke-opacity:1" />
      <rect
         y="517.36224"
         x="272.5"
         height="66.428566"
         width="65.714279"
         id="rect4183-6"
         style="fill:#848486;fill-opacity:1;stroke:none;stroke-width:1;stroke-linecap:round;stroke-linejoin:round;stroke-miterlimit:4;stroke-dasharray:none;stroke-opacity:1" />
      <rect
         y="517.36224"
         x="357.85715"
         height="66.428566"
         width="65.714279"
         id="rect4185-8"
         style="fill:#d95c5c;fill-opacity:1;stroke:none;stroke-width:1;stroke-linecap:round;stroke-linejoin:round;stroke-miterlimit:4;stroke-dasharray:none;stroke-opacity:1" />
      <rect
         y="517.36224"
         x="442.85715"
         height="66.428566"
         width="66.428566"
         id="rect4187-5"
         style="fill:#40a2bf;fill-opacity:1;stroke:none;stroke-width:1;stroke-linecap:round;stroke-linejoin:round;stroke-miterlimit:4;stroke-dasharray:none;stroke-opacity:1" />
    </g>
    <path
       d="m 343.74877,697.61648 c -19.21446,0 -34.7815,15.541 -34.7815,34.72321 0,19.1822 15.56704,34.7232 34.7815,34.7232 19.21445,0 34.78152,-15.541 34.78152,-34.7232 0,-19.18221 -15.56707,-34.72321 -34.78152,-34.72321 z m -74.06806,65.11429 c -41.40814,-0.005 -49.09449,0.2116 -51.9404,1.58734 -2.47696,1.19736 -5.94824,5.75116 -13.41573,17.55999 -5.53854,8.75848 -12.81284,20.24735 -16.16512,25.52984 -5.40601,8.51877 -6.09506,10.23024 -6.09506,15.11286 0,9.82721 7.20101,16.84919 17.09265,16.70021 8.73612,-0.13156 10.75046,-2.08197 25.30769,-24.86843 l 13.25012,-20.76777 20.40519,-0.13224 c 11.84929,-0.0716 20.40516,0.29267 20.40516,0.85981 0,0.91271 -15.26041,28.63199 -31.40275,57.04525 -7.54757,13.28493 -21.18521,35.16398 -31.33652,50.26597 l -6.22758,9.25951 -39.9159,0 c -37.75247,0 -40.14655,0.11477 -44.2885,2.11647 -5.38596,2.60294 -9.01007,8.50333 -9.01007,14.71603 0,5.2297 1.9595,10.05344 6.3269,13.32709 0,0 4.78313,2.56301 6.36006,2.87706 1.57696,0.3141 48.46225,0.56219 48.46225,0.56219 49.72998,0.28417 51.62679,0.23779 55.88233,-1.81883 5.84554,-2.82504 10.74616,-9.5406 35.0797,-48.08337 0.89029,-1.41021 3.44723,0.31364 16.03261,10.74766 8.24125,6.83255 18.13907,15.02297 21.99517,18.18834 l 7.02255,5.75413 0,41.43635 c 0,48.25297 0.14612,49.13207 9.01007,54.59817 7.55882,4.6611 19.98806,1.1066 24.61202,-7.044 2.36944,-4.1764 2.40091,-4.5794 2.41818,-47.12427 0.0191,-46.60084 -0.33441,-50.00653 -6.02879,-60.45144 -2.81271,-5.15906 -7.71452,-10.18365 -23.08835,-23.64483 -14.95312,-13.09286 -15.41061,-13.60621 -15.40319,-18.12221 0,-2.5212 1.3621,-6.68949 3.54435,-10.94606 l 3.51128,-6.87852 35.974,-0.52909 c 33.50783,-0.49317 36.19708,-0.67303 39.55157,-2.64559 6.10873,-3.59212 8.04951,-7.18002 8.04951,-14.81525 0,-7.63518 -1.94078,-11.22311 -8.04951,-14.81524 -3.28337,-1.9307 -6.27585,-0.55687 -29.72523,-0.86037 -14.13787,-0.18299 -31.09934,2.3891 -27.88505,0.34112 0.14587,-0.0929 4.58719,-7.13848 7.02807,-12.31179 5.85135,-12.40201 6.54694,-19.47291 2.58376,-26.22426 -3.51485,-5.98766 -12.7982,-14.13487 -17.62263,-15.47662 -2.16103,-0.60102 -23.99709,-1.02202 -52.30481,-1.02518 z"
       id="path3014-7"
       style="fill:#f2f2f2;fill-opacity:1;stroke:#505050;stroke-width:8;stroke-miterlimit:4;stroke-dasharray:none;stroke-opacity:1" />
  </g>
</svg>
