<?xml version="1.0" standalone="no"?>
<!DOCTYPE svg PUBLIC "-//W3C//DTD SVG 20010904//EN"
 "http://www.w3.org/TR/2001/REC-SVG-20010904/DTD/svg10.dtd">
<svg version="1.0" xmlns="http://www.w3.org/2000/svg"
 width="512.000000pt" height="512.000000pt" viewBox="0 0 512.000000 512.000000"
 preserveAspectRatio="xMidYMid meet">
<g transform="translate(0.000000,512.000000) scale(0.100000,-0.100000)"
fill="#000000" stroke="none">
<path d="M761 5103 c-61 -22 -133 -96 -154 -158 -16 -45 -17 -230 -17 -2385 0
-2635 -8 -2393 80 -2480 86 -87 -81 -80 1890 -80 1971 0 1804 -7 1890 80 88
87 80 -155 80 2480 0 2635 8 2393 -80 2480 -86 87 82 80 -1894 79 -1564 0
-1756 -2 -1795 -16z m3359 -351 c19 -9 45 -32 57 -51 23 -34 23 -38 23 -360 0
-308 -1 -328 -20 -359 -11 -18 -34 -41 -52 -52 -33 -20 -54 -20 -1559 -20
l-1526 0 -34 23 c-68 45 -70 53 -67 419 3 312 4 328 24 355 11 15 36 36 55 45
32 17 126 18 1549 18 1422 0 1517 -1 1550 -18z m-554 -1236 c111 -51 174 -151
174 -276 -1 -127 -56 -217 -167 -272 -56 -27 -77 -32 -137 -32 -121 0 -229 70
-277 177 -32 70 -33 182 -3 248 74 161 250 228 410 155z m-359 -631 c36 -8
120 -82 149 -130 23 -39 26 -54 21 -96 -6 -50 -84 -230 -106 -243 -14 -9 -14
-49 1 -64 8 -8 84 -10 295 -5 l284 6 29 -28 c53 -51 46 -155 -12 -198 -28 -21
-96 -24 -739 -36 -35 -1 -37 -3 -73 -81 -47 -99 -55 -151 -32 -195 10 -18 88
-94 173 -170 168 -149 214 -207 238 -300 22 -88 23 -900 1 -944 -18 -33 -88
-71 -133 -71 -42 0 -96 39 -110 80 -8 25 -12 157 -12 455 l-1 421 -206 169
c-113 94 -219 178 -235 188 -54 35 -65 26 -195 -172 -156 -236 -191 -281 -231
-297 -26 -11 -133 -14 -526 -14 l-494 0 -34 23 c-71 48 -71 156 0 204 l34 23
411 0 411 0 35 53 c121 183 228 351 302 477 125 211 358 631 365 659 7 30 -7
54 -38 62 -13 4 -114 7 -224 8 l-200 0 -125 -195 c-135 -211 -181 -264 -230
-264 -77 0 -140 59 -140 131 0 29 21 69 96 190 97 154 190 297 219 334 15 19
31 20 248 25 253 5 749 2 784 -5z"/>
</g>
</svg>
